<svg width="18" height="22" viewBox="0 0 18 22" fill="none" xmlns="http://www.w3.org/2000/svg">
<path d="M0.423459 16.219C0.399603 16.3107 0.399602 16.3796 0.375746 16.4484C0.375746 16.4713 0.375746 16.4713 0.375746 16.4943L0.0178926 21.4494C-0.00596421 21.5641 -0.00596421 21.7018 0.0178926 21.8165C0.0417495 21.9312 0.137177 22 0.256461 22H17.7435C17.8628 22 17.9583 21.9312 17.9821 21.8165C18.006 21.7018 18.006 21.5641 17.9821 21.4724L17.6004 16.4713V16.4254C17.5765 16.3107 17.5527 16.196 17.5288 16.1043V16.0584C17.4811 15.8749 17.4095 15.6913 17.338 15.5078C17.1471 15.0949 16.8847 14.7508 16.5746 14.4526C16.336 14.2461 16.1213 14.0855 15.8827 13.9708C15.7634 13.902 15.6203 13.8332 15.4771 13.7873C15.3817 13.7643 15.2624 13.7185 15.167 13.6955C15.1431 13.6955 15.1193 13.6726 15.0954 13.6726C15.0716 13.6726 15.0477 13.6726 15.0477 13.6496C15.0239 13.6496 15.0239 13.6496 15 13.6496L14.7137 13.6038L14.2604 5.11575C14.2604 3.92284 13.8549 2.79875 13.0676 1.88113C12.829 1.60584 12.5666 1.33055 12.2565 1.12409C11.3022 0.38999 10.1332 0 8.9165 0C7.6998 0 6.53082 0.38999 5.57654 1.12409C5.2664 1.35349 4.98012 1.65172 4.71769 1.94995C3.97813 2.84463 3.57256 3.96872 3.57256 5.11575L3.09543 13.6726L3.02386 13.6955H3C2.95229 13.6955 2.92843 13.7185 2.88072 13.7185H2.833C2.71372 13.7414 2.59443 13.7873 2.49901 13.8102C2.35586 13.8561 2.21272 13.9249 2.09344 13.9937C1.85487 14.1084 1.6163 14.269 1.37773 14.4755C0.900597 14.9343 0.566601 15.4849 0.447316 16.0813L0.423459 16.219ZM5.14712 5.87278C5.19483 5.87278 5.21869 5.87278 5.2664 5.87278H6.36382C6.50696 5.87278 6.6501 5.80396 6.74553 5.68926L7.15109 5.16163L7.36581 5.62044C7.43738 5.78102 7.60437 5.89572 7.79523 5.89572H12.4712C12.5189 5.89572 12.5666 5.89572 12.6143 5.87278C12.6382 5.87278 12.6382 5.87278 12.662 5.84984C12.6859 5.84984 12.7097 5.8269 12.7336 5.8269C12.7575 5.8269 12.7575 5.80396 12.7813 5.80396C12.8052 5.78102 12.829 5.78102 12.8529 5.75808C12.8767 5.75808 12.8767 5.73514 12.9006 5.73514C12.9245 5.7122 12.9245 5.7122 12.9483 5.68926L12.9722 5.66632C13.0199 5.87278 13.0437 6.10219 13.0437 6.30865C13.0437 6.40042 13.0437 6.46924 13.0437 6.561C13.0437 6.95099 12.996 7.34098 12.9245 7.73097C12.6382 9.29093 11.827 10.8279 10.8251 11.7456C9.63221 12.8238 8.32008 12.8467 7.12724 11.8144C6.14911 10.9885 5.33797 9.52033 5.00398 7.98332C4.95626 7.73097 4.90855 7.45568 4.88469 7.1804C4.86084 6.97393 4.86084 6.76747 4.86084 6.561C4.86084 6.28571 4.88469 6.03337 4.90855 5.75808C4.90855 5.75808 4.93241 5.75808 4.93241 5.78102C4.93241 5.78102 4.95626 5.78102 4.95626 5.80396C4.98012 5.8269 5.00398 5.8269 5.02783 5.84984C5.05169 5.84984 5.05169 5.84984 5.07555 5.87278C5.0994 5.87278 5.12326 5.89572 5.14712 5.89572C5.12326 5.87278 5.12326 5.87278 5.14712 5.87278ZM7.19881 13.1449V12.4567C7.22266 12.4797 7.27038 12.5026 7.29424 12.5026C7.31809 12.5026 7.31809 12.5255 7.34195 12.5255C7.41352 12.5714 7.46123 12.5944 7.5328 12.6403C7.55666 12.6632 7.58052 12.6632 7.60437 12.6861C7.65209 12.7091 7.6998 12.732 7.77137 12.755C7.93837 12.8238 8.10537 12.8926 8.24851 12.9155C8.27237 12.9155 8.29622 12.9385 8.32008 12.9385C8.36779 12.9614 8.43936 12.9614 8.48708 12.9614C8.51093 12.9614 8.53479 12.9614 8.55865 12.9844C8.60636 12.9844 8.67793 13.0073 8.72565 13.0073C8.7495 13.0073 8.77336 13.0073 8.79722 13.0073C8.84493 13.0073 8.86879 13.0073 8.9165 13.0073C8.94036 13.0073 8.94036 13.0073 8.96422 13.0073C8.98807 13.0073 9.03579 13.0073 9.05964 13.0073C9.15507 13.0073 9.2505 12.9844 9.32207 12.9844C9.34593 12.9844 9.39364 12.9844 9.4175 12.9614C9.46521 12.9614 9.51292 12.9385 9.56064 12.9385C9.60835 12.9385 9.63221 12.9155 9.67992 12.9155C9.72764 12.8926 9.77535 12.8926 9.82306 12.8697C9.87078 12.8467 9.91849 12.8467 9.9662 12.8238C10.0139 12.8008 10.0378 12.8008 10.0855 12.7779C10.1571 12.732 10.2525 12.7091 10.3241 12.6632C10.3479 12.6632 10.3479 12.6403 10.3718 12.6403C10.4433 12.5944 10.5149 12.5485 10.5865 12.5026C10.6103 12.5026 10.6103 12.4797 10.6342 12.4797C10.6819 12.4567 10.7058 12.4338 10.7535 12.4108V13.1449V13.2596C10.7535 13.7185 10.5626 14.1543 10.2286 14.4755C9.89463 14.7967 9.44135 14.9802 8.96422 14.9802C7.98608 14.9802 7.19881 14.2231 7.19881 13.2826V13.1449ZM2.78529 15.9666C3.19086 15.5766 3.83499 15.5766 4.2167 15.9666C4.40756 16.1502 4.69384 16.5631 4.90855 16.976C4.95626 16.976 5.00398 16.976 5.02783 16.976C5.24255 16.5631 5.55268 16.1502 5.71968 15.9666C6.12525 15.5766 6.76938 15.5766 7.15109 15.9666C7.55666 16.3566 7.55666 16.976 7.15109 17.3431C6.96024 17.5266 6.53082 17.8019 6.10139 18.0083C6.10139 18.0542 6.10139 18.1001 6.10139 18.123C6.53082 18.3295 6.96024 18.6277 7.15109 18.7883C7.55666 19.1783 7.55666 19.7977 7.15109 20.1648C6.96024 20.3483 6.69781 20.44 6.43539 20.44C6.17296 20.44 5.91054 20.3483 5.71968 20.1648C5.52883 19.9812 5.24255 19.5683 5.02783 19.1554C5.00398 19.1554 4.98012 19.1554 4.95626 19.1554C4.93241 19.1554 4.90855 19.1554 4.88469 19.1554C4.66998 19.5683 4.35984 20.0042 4.19284 20.1648C4.00199 20.3483 3.73956 20.44 3.47714 20.44C3.21471 20.44 2.95229 20.3483 2.76143 20.1648C2.35587 19.7748 2.35587 19.1554 2.76143 18.7883C2.95229 18.6048 3.38171 18.3295 3.81113 18.123C3.81113 18.0772 3.81113 18.0313 3.81113 18.0083C3.38171 17.8019 2.92843 17.5036 2.76143 17.3431C2.37972 16.9531 2.37972 16.3337 2.78529 15.9666Z" fill="#535353"/>
</svg>
