<svg xmlns="http://www.w3.org/2000/svg" width="24" height="24" fill="none" viewBox="0 0 24 24" id="home">
  <path fill="#000" fill-rule="evenodd" d="M10.423 3.18839C11.3699 2.52558 12.6301 2.52558 13.577 3.18839L20.577 8.08838C21.3122 8.60299 21.75 9.44391 21.75 10.3413V19C21.75 20.5188 20.5188 21.75 19 21.75H5C3.48122 21.75 2.25 20.5188 2.25 19V10.3413C2.25 9.44391 2.68783 8.60299 3.42298 8.08838L10.423 3.18839ZM9 16.75C8.58579 16.75 8.25 17.0858 8.25 17.5C8.25 17.9142 8.58579 18.25 9 18.25H15C15.4142 18.25 15.75 17.9142 15.75 17.5C15.75 17.0858 15.4142 16.75 15 16.75H9Z" clip-rule="evenodd"></path>
</svg>
