<svg width="16" height="20" viewBox="0 0 16 20" fill="none" xmlns="http://www.w3.org/2000/svg">
<path fill-rule="evenodd" clip-rule="evenodd" d="M3.62161 5.79804C3.74979 6.44836 3.91001 7.05617 4.02979 7.46121C3.61913 7.17635 1.89901 5.81893 1.98612 7.01905C2.09252 8.48241 3.63001 8.70287 3.63406 8.70336L3.89103 8.74662V8.95332C3.89103 8.95774 3.85526 10.4683 5.46338 11.1611C6.26759 11.5079 7.13434 11.6814 8.00047 11.6814C8.86628 11.6814 9.73241 11.5079 10.5366 11.1611C12.1447 10.4683 12.109 8.95774 12.109 8.95332V8.74662L12.3659 8.70336C12.37 8.70287 13.9075 8.48241 14.0139 7.01905C14.0988 5.84916 12.4475 7.12425 12.0228 7.40861C12.1678 6.8126 12.4163 5.77665 12.529 4.8196C12.309 4.53966 11.9811 4.31379 11.4992 4.21867C9.68201 3.86009 7.51638 4.79846 6.99216 3.99797C6.46795 3.19772 5.73435 2.59016 5.73435 2.59016C5.73435 2.59016 5.27982 3.91465 4.40716 4.49468C4.0021 4.76381 3.76224 5.30034 3.62161 5.79804ZM6.07657 12.2234C6.07657 12.2234 5.38809 13.0556 5.226 13.5997C5.06391 14.1436 0.243598 13.7922 0.121643 15.9039C-0.000311099 18.0158 8.0164e-09 20 8.0164e-09 20H16C16 20 16.0003 18.0158 15.8784 15.9039C15.7564 13.7922 10.9361 14.1436 10.774 13.5997C10.6122 13.0556 9.92343 12.2234 9.92343 12.2234C9.95112 12.2379 9.89138 12.1081 9.81796 11.9616C10.1673 11.8707 10.5111 11.7535 10.8456 11.6094C12.412 10.9345 12.6954 9.64002 12.7461 9.14896C13.2896 9.00321 14.5537 8.50895 14.6601 7.04707C14.7624 5.63681 13.8431 5.77714 13.1226 6.09248C13.3055 5.27109 13.5049 3.8038 13.1409 2.1485C12.5819 -0.390378 10.5556 0.21669 8.98357 0.0237557C7.41123 -0.169425 5.31529 0.879059 5.31529 0.879059C5.31529 0.879059 3.42873 0.686124 2.55513 2.03839C1.98581 2.92048 2.53056 4.71834 2.97855 5.86194L3.03393 6.16473C2.29878 5.80664 1.22981 5.53235 1.34026 7.04707C1.44634 8.50895 2.71038 9.00321 3.25388 9.14896C3.30459 9.64002 3.58833 10.9345 5.15476 11.6094C5.48889 11.7535 5.83266 11.8707 6.18204 11.9616C6.10862 12.1081 6.04888 12.2379 6.07657 12.2234ZM9.62725 12.0083C9.63876 12.3932 9.66739 12.9455 9.74143 13.2475C9.86307 13.7438 9.64001 14.3036 9.64001 14.3036L8.00016 15.6281L6.35999 14.3036C6.35999 14.3036 6.13693 13.7438 6.25857 13.2475C6.33261 12.9455 6.36124 12.3935 6.37275 12.0083C6.90754 12.1317 7.45416 12.1934 8.00047 12.1934C8.54646 12.1934 9.09277 12.1317 9.62725 12.0083Z" fill="#535353"/>
</svg>
