<svg width="23" height="25" viewBox="0 0 23 25" fill="none" xmlns="http://www.w3.org/2000/svg">
<path d="M19.5886 18.1543V10.2943C19.5886 5.82728 15.9674 2.20605 11.5003 2.20605C7.03334 2.20605 3.41211 5.82728 3.41211 10.2943V18.1543H4.8827C6.85791 18.1543 9.06379 18.1543 11.5003 18.1543C13.9369 18.1543 16.1428 18.1543 18.118 18.1543H19.5886Z" fill="url(#paint0_linear_1012_24)"/>
<path d="M19.956 16.9121C21.3773 16.9121 22.5295 18.0643 22.5295 19.4856C22.5295 20.907 21.3773 22.0592 19.956 22.0592H3.04423C1.62291 22.0592 0.470703 20.907 0.470703 19.4856C0.470703 18.0643 1.62291 16.9121 3.04423 16.9121H19.956Z" fill="url(#paint1_linear_1012_24)"/>
<path d="M7.08858 20.5882C7.08858 23.0248 9.06379 25 11.5003 25C13.9369 25 15.9121 23.0248 15.9121 20.5882H7.08858Z" fill="url(#paint2_linear_1012_24)"/>
<path d="M10.0296 3.72266L12.9708 3.72266H14.4414V2.57354C14.4414 1.15222 13.2892 7.20954e-06 11.8679 7.20954e-06H11.1326C9.71126 7.20954e-06 8.55905 1.15222 8.55905 2.57354V3.72266L10.0296 3.72266Z" fill="url(#paint3_linear_1012_24)"/>
<defs>
<linearGradient id="paint0_linear_1012_24" x1="812.236" y1="2.20605" x2="812.236" y2="1597.03" gradientUnits="userSpaceOnUse">
<stop stop-color="#FFC923"/>
<stop offset="1" stop-color="#FFAD41"/>
</linearGradient>
<linearGradient id="paint1_linear_1012_24" x1="1103.41" y1="16.9121" x2="1103.41" y2="531.618" gradientUnits="userSpaceOnUse">
<stop stop-color="#FE9F15"/>
<stop offset="1" stop-color="#FFB03C"/>
</linearGradient>
<linearGradient id="paint2_linear_1012_24" x1="-425.264" y1="25" x2="-425.264" y2="-416.176" gradientUnits="userSpaceOnUse">
<stop stop-color="#FFB637"/>
<stop offset="1" stop-color="#FFBE2F"/>
</linearGradient>
<linearGradient id="paint3_linear_1012_24" x1="-279.676" y1="3.72266" x2="-279.676" y2="-368.542" gradientUnits="userSpaceOnUse">
<stop stop-color="#FFC226"/>
<stop offset="1" stop-color="#FFE825"/>
</linearGradient>
</defs>
</svg>
